# xmcd CD database file
#
# Track frame offsets:
#	150
#	13227
#	26780
#	39150
#	51952
#	66375
#	79240
#	91350
#	105472
#	118245
#	130387
#	145432
#	158267
#	170790
#	182825
#	195527
#	205620
#	216692
#	228975
#	239937
#	254525
#	264990
#	275535
#	286930
#	297807
#	309760
#	322085
#	334307
#
# Disc length: 4617 seconds
#
# Revision: 0
# Processed by: cddbd v1.5.2PL0 Copyright (c) Steve Scherf et al.
# Submitted via: CDex 1.51
#
DISCID=b412071c
DTITLE=Hank Snow - The Singing Ranger
DYEAR=2003
DGENRE=Country
TTITLE0=I'm Moving On
TTITLE1=The Prisoned Cowboy
TTITLE2=Lonesome Blue Yodel
TTITLE3=I'll Tell The Whole World That I Love You
TTITLE4=The Galveston Rose
TTITLE5=I'm Gonna Bid My Blues Goodbye
TTITLE6=Brand On My Heart
TTITLE7=The Night I Stole Ol' Sammy Morgan's Gin
TTITLE8=Within This Broken Heart Of Mine
TTITLE9=My Two-Timin' Woman
TTITLE10=Nobody's Child
TTITLE11=I Wonder Where You Are Tonight
TTITLE12=The Rhumba Boogie
TTITLE13=Marriage Vow
TTITLE14=The Golden Rocket
TTITLE15=Down The Trail Of Achin' Hearts
TTITLE16=Unwanted Sign Upon Your Heart
TTITLE17=Bluebird Island
TTITLE18=Music Makin' Mama From Memphis
TTITLE19=On That Old Hawaiian Shore With You
TTITLE20=The Gold Rush Is Over
TTITLE21=Lady's Man
TTITLE22=Now And Then There's A Fool Such As I
TTITLE23=He'll Understand And Say Well Done
TTITLE24=The Gal Who Invented Kissin'
TTITLE25=I Went To Your Wedding
TTITLE26=Honeymoon On A Rocket
TTITLE27=A Message From The Tradewinds
EXTD=YEAR: 2003
EXTT0=
EXTT1=
EXTT2=
EXTT3=
EXTT4=
EXTT5=
EXTT6=
EXTT7=
EXTT8=
EXTT9=
EXTT10=
EXTT11=
EXTT12=
EXTT13=
EXTT14=
EXTT15=
EXTT16=
EXTT17=
EXTT18=
EXTT19=
EXTT20=
EXTT21=
EXTT22=
EXTT23=
EXTT24=
EXTT25=
EXTT26=
EXTT27=
PLAYORDER=
